# xmcd
#
# Track frame offsets:
#	150
#	18638
#	34130
#	50294
#	76125
#	92970
#	110405
#	125271
#	147003
#	166589
#	184443
#	204695
#	221345
#	241862
#	260610
#	284520
#
# Disc length: 4051 seconds
#
# Revision: 1
# Processed by: cddbd v1.4PL0 Copyright (c) Steve Scherf et al.
# Submitted via: audiograbber 1.80
#
DISCID=e00fd110
DTITLE=Bad Boys Blue - Millenium Collection
DYEAR=1900
DGENRE=
TTITLE0=Your a woman
TTITLE1=Lady of hearts
TTITLE2=Follow the light
TTITLE3=Pretty young girl
TTITLE4=Don´t walk away, Suzane
TTITLE5=Back to the future
TTITLE6=Bang Bang Bang
TTITLE7=Jungle in my heart
TTITLE8=House of silence ´99
TTITLE9=Rhythm of rain
TTITLE10=How I need you
TTITLE11=Hold me now
TTITLE12=Kiss you all over
TTITLE13=Back to the future (Level 1 Remix)
TTITLE14=Hungry for love
TTITLE15=There is nothing that compares
EXTD=CD 1
EXTT0=
EXTT1=
EXTT2=
EXTT3=
EXTT4=
EXTT5=
EXTT6=
EXTT7=
EXTT8=
EXTT9=
EXTT10=
EXTT11=
EXTT12=
EXTT13=
EXTT14=
EXTT15=
PLAYORDER=
